<svg width="22" height="24" viewBox="0 0 22 24" fill="none" xmlns="http://www.w3.org/2000/svg">
<g clip-path="url(#clip0_1_156)">
<path d="M4.92446 21.0002H0.363393V6.97989H4.92446V21.0002ZM2.64147 5.06739C1.18299 5.06739 0 3.91427 0 2.52208C1.04392e-08 1.85336 0.278297 1.21203 0.77367 0.739174C1.26904 0.266319 1.94091 0.000671387 2.64147 0.000671387C3.34204 0.000671387 4.0139 0.266319 4.50928 0.739174C5.00465 1.21203 5.28295 1.85336 5.28295 2.52208C5.28295 3.91427 4.09946 5.06739 2.64147 5.06739ZM21.9951 21.0002H17.4438V14.1752C17.4438 12.5486 17.4095 10.4627 15.0725 10.4627C12.7011 10.4627 12.3377 12.2299 12.3377 14.058V21.0002H7.78152V6.97989H12.156V8.89239H12.2198C12.8287 7.79083 14.3162 6.62833 16.5354 6.62833C21.1514 6.62833 22 9.52989 22 13.2986V21.0002H21.9951Z" fill="white"/>
</g>
<defs>
<clipPath id="clip0_1_156">
<rect width="22" height="24" fill="white"/>
</clipPath>
</defs>
</svg>