<svg width="18" height="18" viewBox="0 0 18 18" fill="none" xmlns="http://www.w3.org/2000/svg">
<path d="M7.18875 8.769H10.4348C10.4348 8.769 12.2588 8.79825 12.2588 7.0065V4.04325C12.2588 4.04325 12.5355 2.25 8.952 2.25C5.5215 2.25 5.73525 3.73725 5.73525 3.73725L5.73975 5.2785H9.012V5.74125H4.44C4.44 5.74125 2.24475 5.49225 2.24475 8.95275C2.24475 12.4132 4.161 12.2902 4.161 12.2902H5.304V10.6845C5.304 10.6845 5.24175 8.769 7.18875 8.769ZM7.14675 4.464C6.99061 4.464 6.84085 4.40197 6.73044 4.29156C6.62003 4.18115 6.558 4.0314 6.558 3.87525C6.558 3.7191 6.62003 3.56935 6.73044 3.45894C6.84085 3.34853 6.99061 3.2865 7.14675 3.2865C7.3029 3.2865 7.45265 3.34853 7.56306 3.45894C7.67347 3.56935 7.7355 3.7191 7.7355 3.87525C7.7355 4.0314 7.67347 4.18115 7.56306 4.29156C7.45265 4.40197 7.3029 4.464 7.14675 4.464Z" fill="#064EA4"/>
<path d="M13.839 5.649H12.696V7.25475C12.696 7.25475 12.7582 9.17025 10.8112 9.17025H7.56522C7.56522 9.17025 5.74122 9.14025 5.74122 10.9328V13.896C5.74122 13.896 5.46447 15.6893 9.04797 15.6893C12.4777 15.6893 12.264 14.202 12.264 14.202L12.2595 12.6615H8.98722V12.1988H13.56C13.56 12.1988 15.7552 12.4478 15.7552 8.98725C15.7552 5.52675 13.839 5.649 13.839 5.649ZM10.8532 13.476C11.0094 13.476 11.1591 13.538 11.2695 13.6484C11.3799 13.7589 11.442 13.9086 11.442 14.0648C11.442 14.2209 11.3799 14.3706 11.2695 14.4811C11.1591 14.5915 11.0094 14.6535 10.8532 14.6535C10.6971 14.6535 10.5473 14.5915 10.4369 14.4811C10.3265 14.3706 10.2645 14.2209 10.2645 14.0648C10.2645 13.9086 10.3265 13.7589 10.4369 13.6484C10.5473 13.538 10.6971 13.476 10.8532 13.476Z" fill="#064EA4"/>
</svg>